HIERARCHY
ROOT Hips
{
  OFFSET -125.086 92.215 135.881
  CHANNELS 6 Xposition Yposition Zposition Zrotation Xrotation Yrotation
  JOINT LeftUpLeg
  {
    OFFSET 8.64259 1.95398 -2.38835
    CHANNELS 3 Zrotation Xrotation Yrotation
    JOINT LeftLeg
    {
      OFFSET 43.7702 0 0
      CHANNELS 3 Zrotation Xrotation Yrotation
      JOINT LeftFoot
      {
        OFFSET 40.6238 0 0
        CHANNELS 3 Zrotation Xrotation Yrotation
        JOINT LeftToeBase
        {
          OFFSET 12.7242 0 0
          CHANNELS 3 Zrotation Xrotation Yrotation
          End Site
          {
            OFFSET 0 0 0
          }
        }
      }
    }
  }
  JOINT RightUpLeg
  {
    OFFSET -8.2249 1.95398 -2.59336
    CHANNELS 3 Zrotation Xrotation Yrotation
    JOINT RightLeg
    {
      OFFSET 43.5653 0 0
      CHANNELS 3 Zrotation Xrotation Yrotation
      JOINT RightFoot
      {
        OFFSET 40.6238 0 0
        CHANNELS 3 Zrotation Xrotation Yrotation
        JOINT RightToeBase
        {
          OFFSET 12.7242 0 0
          CHANNELS 3 Zrotation Xrotation Yrotation
          End Site
          {
            OFFSET 0 0 0
          }
        }
      }
    }
  }
  JOINT Spine
  {
    OFFSET 0.165834 0.87714 6.61349
    CHANNELS 3 Zrotation Xrotation Yrotation
    JOINT Spine1
    {
      OFFSET 7.38963 1.71661e-005 0
      CHANNELS 3 Zrotation Xrotation Yrotation
      JOINT Spine2
      {
        OFFSET 11.9445 1.14441e-005 0
        CHANNELS 3 Zrotation Xrotation Yrotation
        JOINT Spine3
        {
          OFFSET 14.7254 4.19617e-005 0
          CHANNELS 3 Zrotation Xrotation Yrotation
          JOINT Spine4
          {
            OFFSET 10.9679 0 0
            CHANNELS 3 Zrotation Xrotation Yrotation
            JOINT RightShoulder
            {
              OFFSET 2.46616 -1.6653 3.69651
              CHANNELS 3 Zrotation Xrotation Yrotation
              JOINT RightArm
              {
                OFFSET 13.0012 0 0
                CHANNELS 3 Zrotation Xrotation Yrotation
                JOINT RightForeArm
                {
                  OFFSET 28.7848 1.52588e-005 0
                  CHANNELS 3 Zrotation Xrotation Yrotation
                  JOINT RightHand
                  {
                    OFFSET 26.5688 1.52588e-005 0
                    CHANNELS 3 Zrotation Xrotation Yrotation
                    End Site
                    {
                      OFFSET 0 0 0
                    }
                  }
                }
              }
            }
            JOINT LeftShoulder
            {
              OFFSET 2.38034 -1.29275 -3.7523
              CHANNELS 3 Zrotation Xrotation Yrotation
              JOINT LeftArm
              {
                OFFSET 16.3182 6.10352e-005 0
                CHANNELS 3 Zrotation Xrotation Yrotation
                JOINT LeftForeArm
                {
                  OFFSET 27.0901 0 0
                  CHANNELS 3 Zrotation Xrotation Yrotation
                  JOINT LeftHand
                  {
                    OFFSET 24.5451 1.52588e-005 0
                    CHANNELS 3 Zrotation Xrotation Yrotation
                    End Site
                    {
                      OFFSET 0 0 0
                    }
                  }
                }
              }
            }
            JOINT Neck
            {
              OFFSET 5.0226 -0.0266342 0
              CHANNELS 3 Zrotation Xrotation Yrotation
              JOINT Head
              {
                OFFSET 6.69363 2.86102e-005 0
                CHANNELS 3 Zrotation Xrotation Yrotation
                End Site
                {
                  OFFSET 0 0 0
                }
              }
            }
          }
        }
      }
    }
  }
}
MOTION
Frames:	10
Frame Time:	0.0416667
-129.916 84.2016 -32.256 107.754 70.237 82.004 177.878 25.138 102.099 -66.9653 23.3945 9.9781 70.7077 16.9905 21.641 64.5984 0.145928 16.0854 176.38 35.9556 79.7452 -84.6139 -11.4539 -3.38464 54.9661 -0.218299 4.6904 49.641 -4.21963 -10.8336 -0.83337 9.74851 -89.0986 7.38459 -1.27419 1.84261 -4.28709 -1.19187 1.89689 -26.821 -1.76902 1.37455 -6.80836 -1.76901 1.37455 108.889 -50.5154 -71.7558 21.2065 2.24778 -26.6368 5.88316 3.97707 -58.6923 -8.77389 0.215134 -8.70115 -83.2601 -43.0018 87.9149 -42.0394 24.4057 -45.2139 6.25865 21.7857 -40.3914 0.637003 -0.322315 -13.1527 -3.53686 -22.9728 7.05272 -20.7549 -16.0612 -50.2604 
-119.896 84.5417 -21.6802 106.438 54.7177 78.6524 -170.481 21.9871 109.163 -56.4078 21.328 6.98724 63.9341 7.87542 8.45924 69.0781 0.042974 14.5345 -177.614 31.8625 67.9676 -83.542 -1.61981 -6.87874 57.1164 -2.52199 4.75833 51.1675 -4.78361 -12.4784 -0.778894 8.8575 -88.6561 9.16271 -0.951962 2.72971 -2.51083 -0.830921 2.76891 -25.0311 -1.72811 2.31777 -5.01846 -1.72814 2.31776 108.998 -51.0764 -71.6618 28.0118 -15.8813 -11.3991 -16.1349 -2.95661 -76.6632 -7.43916 0.108064 -7.36507 -80.6181 -46.7765 92.4811 -33.3812 33.0923 -53.2498 16.8817 18.3915 -68.837 0.312692 -0.297696 -13.1918 0.635374 -22.5591 12.6754 -24.866 -14.4972 -51.5703 
-107.268 87.6631 -11.4131 99.4963 37.1976 83.8196 -167.465 5.99856 113.441 -32.0229 11.3886 11.2508 47.7803 -3.98211 -7.56228 65.8494 1.33606 20.5702 175.626 33.5085 67.9201 -70.8516 5.75666 -4.93813 53.8801 -1.24885 5.58745 53.9106 -5.35548 -11.0003 -1.09008 7.76548 -89.6164 11.3743 -1.99019 0.961754 -0.295196 -1.94595 1.04843 -22.8443 -2.18714 0.318919 -2.83164 -2.18714 0.31891 104.657 -49.9812 -78.2792 30.6163 -24.2922 3.05194 -20.6546 -12.5297 -64.2113 -4.21122 0.0701563 -8.33794 -76.835 -48.222 98.4309 -24.12 23.9914 -51.5099 23.3556 7.87913 -84.1996 0.703842 -0.350317 -13.9736 6.20836 -16.6863 20.9482 -24.5388 -12.5332 -43.8979 
-94.3846 88.9186 -0.112874 95.9738 15.4733 78.2958 -168.805 0.0126096 106.234 -43.717 12.1899 9.83096 44.6436 -6.05908 -1.26924 61.1222 -0.768708 12.1553 170.897 33.2254 72.6782 -64.74 -2.30125 -1.72323 49.9825 2.29289 11.7239 66.4711 -7.60879 -7.50068 -0.490689 7.98464 -90.6308 10.8866 -1.26794 -1.12818 -0.784297 -1.31637 -1.07128 -23.3174 -0.870331 -1.45705 -3.30477 -0.870347 -1.45706 103.611 -49.6368 -79.9054 23.7551 -15.8108 -3.0292 -7.04982 -13.3248 -48.5126 -10.3634 -0.00164646 -5.50284 -74.1205 -50.3755 102.512 -21.2515 3.93023 -34.6534 21.4427 13.0717 -68.5827 2.66891 -0.422299 -12.0625 17.6931 -9.22754 24.6294 -24.4796 -10.4883 -31.0311 
-83.8512 87.8828 11.5768 91.1997 -7.79089 87.5771 -162.509 13.4761 96.8841 -77.8514 8.18108 1.21917 51.1018 1.55778 9.00677 60.7976 -0.18849 15.4652 171.067 32.1048 80.0994 -67.3069 -9.43103 -0.380772 62.5366 -2.42656 5.27626 70.8068 -6.45629 0.691182 0.419364 9.01058 -90.7767 8.85338 0.491152 -1.57176 -2.81847 0.421519 -1.59185 -25.3481 0.940813 -1.35153 -5.33544 0.940799 -1.35154 104.533 -50.4137 -78.4897 20.3953 -13.2063 -25.0825 -5.54095 -16.6601 -42.5343 -12.2866 -0.0486406 -4.86348 -74.2765 -50.3609 102.273 -15.6022 -9.17746 -17.3686 14.541 32.6303 -32.3666 8.46645 -0.717728 -10.9542 26.3621 -3.10325 21.3427 -20.8866 -8.02553 -19.3782 
-71.0074 87.6519 24.5494 82.8713 -24.4232 84.2576 -161.378 39.866 85.3537 -98.5318 7.74211 2.03445 54.3909 4.90246 12.0223 61.9293 -1.40317 8.11286 171.24 22.9174 88.9728 -59.8673 -14.6431 2.25695 71.2898 -4.57431 9.59211 60.2014 -3.67144 6.77879 1.4638 9.28913 -90.9971 8.31522 2.48238 -2.12031 -3.35527 2.38666 -2.2275 -25.9034 3.00476 -1.27596 -5.8907 3.00472 -1.27599 103.119 -48.0932 -80.6417 17.6092 -17.3745 -38.6426 -9.59447 -13.6303 -54.6606 -8.36652 -0.0276794 -5.08762 -74.2203 -50.5007 102.35 -16.1448 -17.8409 -2.99748 -1.17296 64.33 -0.00398036 11.2767 -0.673728 -9.24028 28.839 -1.52974 14.5068 -20.3345 -5.72392 -10.0852 
-56.4408 89.8971 40.8126 75.3984 -32.5335 78.5147 -161.763 57.5574 74.9247 -88.3872 10.7702 0.52896 55.9869 4.13078 9.17714 58.6832 -1.89294 4.44189 173.313 3.44186 89.0717 -31.8352 -13.3971 1.10707 60.2246 1.1823 27.7009 49.5893 -2.69701 7.63309 1.98744 9.17733 -89.9134 8.51372 4.00404 -0.075082 -3.1511 3.99692 -0.251537 -25.7326 3.84114 1.1336 -5.71993 3.84118 1.1336 104.606 -46.1922 -78.171 15.6011 -18.8074 -39.2169 -10.4216 -4.98972 -69.8827 -8.86427 0.16128 -7.71955 -78.1302 -45.8524 96.4087 -18.3916 -19.7054 16.0414 0.490072 63.5454 -0.818847 11.9786 -0.630794 -8.69639 28.8095 -4.77725 5.54447 -20.9093 -5.60176 -7.54682 
-41.8454 91.8774 56.8154 74.2174 -33.966 82.4963 -164.656 56.012 76.5699 -60.4083 15.7319 -4.53319 53.432 0.186625 5.15579 53.6611 -2.02693 1.51587 175.907 -7.61622 97.3653 -24.6721 -15.0211 0.179981 23.7099 8.14638 39.3414 46.1779 -2.69822 0.855807 1.73584 9.56041 -89.9885 7.76587 3.47082 -0.17707 -3.90056 3.45964 -0.329846 -26.4713 3.36347 0.875419 -6.45863 3.36349 0.87543 105.997 -47.8291 -76.0194 15.4556 -13.7396 -32.0429 -13.2935 -5.1662 -71.4143 -9.72771 0.171667 -7.63187 -79.5294 -46.2338 94.1848 -24.9922 -19.9997 10.9712 0.699816 62.893 1.06884 10.9479 -0.841514 -10.7712 32.5172 -5.10462 0.853015 -22.1533 -4.47564 -4.6175 
-26.5923 90.8956 72.2334 78.8751 -33.4579 86.4566 -166.212 38.8411 76.2343 -46.8461 16.9449 -8.80556 54.2955 0.396433 11.9152 37.8821 -0.513912 -4.9535 172.485 7.45285 88.7925 -85.0191 -20.0049 -2.09115 37.8703 8.02342 20.0845 22.3115 1.36609 -1.59587 0.925967 10.3503 -90.1216 6.17433 1.79823 -0.294056 -5.49545 1.78358 -0.372937 -28.0402 1.80343 0.260158 -8.02755 1.80345 0.260159 106.804 -50.5655 -74.984 16.2037 -6.45367 -23.0853 -11.696 -13.5096 -52.6862 -10.0524 0.0849975 -6.44867 -77.6356 -49.1398 97.188 -25.8349 -11.6275 -5.79183 2.869 46.9917 -7.11234 12.5976 -0.862568 -10.2421 33.6914 -3.96419 -4.43463 -19.6898 -2.19789 2.72854 
-10.6354 87.0736 88.2443 77.8256 -33.69 85.8264 -174.176 22.5758 77.7108 -47.4112 21.8886 -3.07522 69.0239 15.8761 28.1722 48.0041 -1.67347 -0.684007 174.268 39.966 90.0733 -122.771 -12.0457 -3.95467 43.0845 3.85436 4.64925 31.845 0.29512 -10.7279 0.605858 10.0782 -90.0257 6.71794 1.19921 -0.0976519 -4.95246 1.19376 -0.15034 -27.4919 1.1731 0.267335 -7.47928 1.17313 0.267342 108.608 -53.1288 -72.5059 15.9899 2.53338 -3.29549 -10.7865 -23.5218 -35.7602 -9.48806 -0.23544 -2.40924 -74.6309 -50.1787 101.747 -20.8875 -5.77729 -27.5622 6.3011 24.2012 -23.7719 18.6697 -1.10034 -9.80327 30.6233 -3.60095 -7.01073 -17.9753 -1.11716 4.3756 
